<svg width="178" height="117" viewBox="0 0 178 117" fill="none" xmlns="http://www.w3.org/2000/svg">
<path d="M53.9036 34.3763L54.3172 35.0623L55.0769 34.8084L59.1469 33.4484L59.1593 33.4443L59.1716 33.4398L65.1066 31.2826L73.7506 28.8527L73.941 28.7992L74.0966 28.6772L80.1492 23.9362L90.7409 21.5543L99.8592 20.2476L104.455 22.7947L104.705 22.933L104.99 22.9188L110.24 22.6572L114.222 23.8319L115.672 27.4518L115.791 27.7503L116.062 27.9232L118.975 29.7803L126.214 36.2182L129.994 39.988L130.088 40.0822L130.204 40.1484L134.004 42.3184L134.235 42.45H134.5H139.248L141.434 47.7983L141.662 48.3555L142.261 48.4151L147.19 48.9053L148.552 51.1831L148.721 51.4662L149.025 51.5931L158.795 55.6631L158.895 55.7044L159 55.7237L164.879 56.7989L171.409 59.1488L176.62 63.6103V71.427L174.263 80.8627L170.024 86.0955L166.044 86.8474L165.548 86.9412L165.329 87.3967L162.277 93.7431L155.696 95.2554L155.67 95.2614L155.645 95.2687L149.955 96.8987L149.883 96.9191L149.816 96.9497L138.029 102.31L132.709 102.815L126.933 100.977L126.566 100.86L126.215 101.02L113.745 106.71L113.679 106.74L113.617 106.78L100.969 114.95L92.1758 112.623L91.9161 112.555L91.657 112.625L82.8361 115.03H73.7241L68.5933 107.858L68.572 107.828L68.5485 107.8L63.5264 101.768L65.4437 97.4563L65.5522 97.2124L65.5247 96.9469L63.8947 81.2169L63.8851 81.1245L63.8587 81.0355L60.92 71.1347V64.5V63.9937L60.512 63.694L55.352 59.904L55.2833 59.8536L55.2072 59.8156L50.3272 57.3756L49.7972 57.1106L49.3103 57.4481L45.7914 59.8874L45.7903 59.8881L42.518 62.15H37.3365L25.679 57.3855L14.4794 49.647L4.69433 38.5352L1.56643 25.5246L8.64792 7.7098L19.7702 1.5H26.8373L36.9739 7.21982L45.2417 20.0097L53.9036 34.3763Z" stroke="black" stroke-width="2" stroke-miterlimit="10"/>
</svg>
